HIERARCHY
ROOT Hips
{
	OFFSET 0.00 0.00 0.00
	CHANNELS 6 Xposition Yposition Zposition Yrotation Xrotation Zrotation
	JOINT Spine
	{
		OFFSET	0.0000	9.2263	1.5771
		CHANNELS 3 Xrotation Yrotation Zrotation
		JOINT Spine1
		{
			OFFSET	0.0000	16.2540	-0.1656
			CHANNELS 3 Xrotation Yrotation Zrotation
			JOINT Spine2
			{
				OFFSET	0.0000	13.6396	-1.2923
				CHANNELS 3 Xrotation Yrotation Zrotation
				JOINT Neck
				{
					OFFSET	0.0000	13.8774	-4.3542
					CHANNELS 3 Xrotation Yrotation Zrotation
					JOINT Neck1
					{
						OFFSET	0.0000	4.3400	0.9269
						CHANNELS 3 Xrotation Yrotation Zrotation
						JOINT Head
						{
							OFFSET	0.0000	4.0266	0.8585
							CHANNELS 3 Xrotation Yrotation Zrotation
							End Site
							{
								OFFSET 0.0000 23.0297 0.1231
							}
						}
					}
				}
				JOINT LeftShoulder
				{
					OFFSET	6.1442	10.1870	-3.7932
					CHANNELS 3 Zrotation Xrotation Yrotation
					JOINT LeftArm
					{
						OFFSET	12.3191	-1.1130	-1.7935
						CHANNELS 3 Zrotation Xrotation Yrotation
						JOINT LeftForeArm
						{
							OFFSET	27.6870	0.0000	0.0000
							CHANNELS 3 Xrotation Zrotation Yrotation
							JOINT LeftHand
							{
								OFFSET	27.8738	0.0000	0.0000
								CHANNELS 3 Zrotation Yrotation Xrotation
								End Site
								{
									OFFSET	10.0000	0.0000	0.0000
								}
							}
						}
					}
				}
				JOINT RightShoulder
				{
					OFFSET	-6.1402	10.1870	-3.7932
					CHANNELS 3 Zrotation Xrotation Yrotation
					JOINT RightArm
					{
						OFFSET	-12.3231	-1.1130	-1.7935
						CHANNELS 3 Zrotation Xrotation Yrotation
						JOINT RightForeArm
						{
							OFFSET	-27.6870	0.0000	0.0000
							CHANNELS 3 Xrotation Zrotation Yrotation
							JOINT RightHand
							{
								OFFSET	-27.8738	0.0000	0.0000
								CHANNELS 3 Zrotation Yrotation Xrotation
								End Site
								{
									OFFSET	-10.0000	0.0000	0.0000
								}
							}
						}
					}
				}
			}
		}
	}
	JOINT LeftUpLeg
	{
		OFFSET	9.6338	-3.2733	0.0000
		CHANNELS 3 Xrotation Yrotation Zrotation
		JOINT LeftLeg
		{
			OFFSET	0.0000	-41.7300	-1.7300
			CHANNELS 3 Xrotation Yrotation Zrotation
			JOINT LeftFoot
			{
				OFFSET	0.0126	-39.1900	-0.8477
				CHANNELS 3 Xrotation Yrotation Zrotation
				JOINT LeftToeBase
				{
					OFFSET	-0.1833	-12.1931	8.2823
					CHANNELS 3 Xrotation Yrotation Zrotation
					End Site
					{
						OFFSET 0.0000 0.0000 10.1681
					}
				}
			}
		}
	}
	JOINT RightUpLeg
	{
		OFFSET	-9.6338	-3.2733	0.0000
		CHANNELS 3 Xrotation Yrotation Zrotation
		JOINT RightLeg
		{
			OFFSET	0.0000	-41.7300	-1.7300
			CHANNELS 3 Xrotation Yrotation Zrotation
			JOINT RightFoot
			{
				OFFSET	0.0126	-39.1900	-0.8477
				CHANNELS 3 Xrotation Yrotation Zrotation
				JOINT RightToeBase
				{
					OFFSET	-0.1833	-12.1931	8.2823
					CHANNELS 3 Xrotation Yrotation Zrotation
					End Site
					{
						OFFSET 0.0032 0.0000 10.1681
					}
				}
			}
		}
	}
}
MOTION
Frames: 17
Frame Time: 0.0333333
4.3859	93.9929	86.0729	3.0913	-0.7909	0.4855	4.8609	-4.3227	-1.049	2.0477	-3.1107	0.5569	2.0372	-3.0675	0.6605	0.6551	2.687	-1.3253	0	0	0	-1.6845	6.856	-1.7627	-15.0136	2.6398	-8.5247	-50.8935	18.0059	-13.2484	0	0	-27.4172	-13.9961	8.364	10.3116																																														14.6371	1.8854	5.2397	56.2806	20.6601	3.0634	0	0	9.4775	10.3836	7.6449	13.0861																																														-11.9984	6.8204	-2.7672	28.4049	-7.6939	3.5726	-14.9304	-0.242	2.3065	-6.8229	0	0	-35.4631	-8.0622	-8.763	72.5697	0.2759	0.3801	-8.457	-0.7518	7.2654	-7.6467	0	0
4.1213	94.4326	91.2354	3.849	-0.5351	0.7247	4.9648	-5.3017	-1.2518	2.1018	-4.1502	1.0592	2.0715	-4.1056	1.1888	0.6961	3.2169	-1.0455	0	0	0	-1.2468	8.2517	-2.107	-14.6325	2.6532	-8.7783	-48.0922	19.5632	-16.3249	0	0	-34.4434	-13.2654	7.7953	9.2783																																														14.701	1.8102	4.8735	57.7518	20.0698	-0.3915	0	0	9.566	13.7552	6.2901	12.5547																																														-5.7624	7.2436	-3.4089	22.8126	-9.0954	4.9264	-15.6494	-0.2284	1.246	-6.6227	0	0	-40.7376	-7.5084	-8.9314	65.9597	-0.7629	0.8873	-13.1362	-1.1375	7.6174	-6.9139	0	0
3.8292	94.2325	96.3862	4.5506	0.0359	1.0317	4.9678	-6.0389	-1.6941	2.1969	-5.1138	1.7433	2.1224	-5.0608	1.8928	0.5511	3.753	-1.1714	0	0	0	-1.5293	9.301	-2.2238	-14.1911	2.6628	-9.0556	-44.8674	20.7213	-19.0035	0	0	-41.7892	-9.899	7.3864	9.0908																																														14.5306	1.6898	4.3843	59.1701	19.5165	-3.5542	0	0	10.2598	16.1078	3.7176	12.338																																														-0.6866	8.0542	-3.5567	18.5223	-7.8152	5.5768	-17.021	-3.2827	-0.2226	-6.4838	0	0	-44.4117	-6.5448	-8.2351	55.5244	-2.1067	0.0448	-12.5248	-1.0427	7.0358	-6.4925	0	0
3.4627	93.5883	101.7312	5.5751	0.7677	2.1017	4.4827	-7.0184	-3.3489	2.4911	-5.9449	2.6827	2.3264	-5.8691	2.8658	0.3897	4.2947	-1.7311	0	0	0	-2.4709	10.0545	-2.0567	-13.836	2.704	-9.4484	-41.1433	21.1703	-21.7038	0	0	-47.9744	-5.4228	6.6881	9.5437																																														14.243	1.5618	3.8975	60.4301	18.7343	-6.1179	0	0	10.8251	17.9662	0.8091	11.55																																														4.2864	9.7283	-3.8129	14.3214	-5.7215	5.4389	-18.3867	-8.3336	-2.0728	-6.6252	0	0	-44.7581	-4.9873	-7.2143	40.3576	-3.9866	-2.6182	-10.1837	-0.8815	7.1137	-6.5108	0	0
3.0836	92.4331	107.2439	6.6855	1.5641	3.0939	3.6793	-7.6063	-4.6433	2.7256	-6.7916	3.3004	2.5109	-6.6951	3.5164	0.2746	4.7869	-2.2571	0	0	0	-3.4376	10.5628	-1.9074	-13.8153	2.8452	-10.1362	-36.8862	21.1954	-23.9331	0	0	-53.429	1.0627	6.5798	8.9245																																														13.9309	1.3976	3.2435	61.4724	17.8856	-8.1731	0	0	11.0487	19.6602	-1.7656	10.4762																																														7.9772	11.0811	-3.7805	12.7424	-2.7321	5.332	-20.9908	-13.7161	-4.229	-7.1729	0	0	-42.013	-4.8349	-6.8946	24.6189	-4.1579	-4.7093	-10.1446	-0.8898	7.3445	-7.0519	0	0
2.6925	91.177	112.6058	7.3268	2.4356	3.6379	3.1427	-7.3729	-4.6266	2.6506	-7.5428	3.2866	2.4745	-7.4481	3.5039	0.0582	5.1423	-2.4281	0	0	0	-3.9148	10.7568	-1.9029	-13.8354	2.9549	-10.6515	-32.8314	21.1763	-25.7576	0	0	-57.2761	8.059	5.6694	7.5568																																														13.68	1.1994	2.4015	62.2674	17.0764	-9.4873	0	0	10.8812	20.9465	-4.6028	9.4709																																														13.1828	11.8313	-3.9978	7.7207	-1.0733	5.8321	-21.6705	-16.831	-6.6459	-8.1185	0	0	-36.8444	-5.9911	-6.7366	8.2604	-2.0428	-4.7761	-5.4093	-0.6194	8.1081	-6.3762	0	0
2.1484	89.8916	118.2941	7.3309	2.5316	3.3543	3.425	-6.7996	-3.7562	2.6226	-7.9424	3.1621	2.4805	-7.8501	3.3906	-0.2607	5.326	-2.2598	0	0	0	-4.3558	10.8054	-1.9734	-13.4891	2.9102	-10.6645	-30.6834	21.002	-26.9353	0	0	-58.5703	12.2124	3.2983	6.6609																																														13.7638	1.0925	1.8974	62.446	16.5142	-9.7986	0	0	10.3684	22.3851	-7.902	8.7108																																														18.0692	13.042	-3.7786	4.9157	-1.0559	7.3498	-21.0283	-17.9912	-8.2512	-9.8628	0	0	-37.3729	-6.0425	-6.1236	10.7502	-1.0749	-4.1763	-2.5863	-0.2223	4.905	-8.5878	0	0
1.4774	88.9603	124.5239	6.678	1.7444	2.0902	4.2013	-6.1966	-1.9972	2.682	-8.0216	3.0833	2.537	-7.9354	3.3338	-0.4399	5.3642	-1.7612	0	0	0	-5.0493	11.1173	-2.5298	-13.2899	2.8327	-10.4234	-31.625	20.4466	-26.199	0	0	-57.9561	13.1832	1.8899	6.6744																																														14.1899	1.1093	1.8848	61.5769	17.0079	-8.9472	0	0	9.4945	23.8264	-10.7856	8.1057																																														21.6533	15.0717	-2.7541	5.9367	-3.1704	9.3728	-15.8303	-16.7458	-7.6014	-15.2969	0	0	-37.7251	-5.741	-4.4208	17.3522	-1.3779	-3.3849	0.7368	0.0095	0.9802	-11.7146	0	0
0.7863	88.5028	130.7858	5.9669	1.5052	1.3205	4.1511	-6.3908	-0.6215	2.4584	-7.8068	2.7381	2.3422	-7.7527	2.962	-0.1773	5.2153	-0.4712	0	0	0	-5.0617	12.1619	-3.8927	-13.3165	2.7367	-9.9421	-35.4249	19.9459	-23.3854	0	0	-55.6021	14.2547	1.4584	6.6286																																														14.8024	1.1962	2.1262	59.5953	18.848	-6.914	0	0	9.0121	24.8654	-13.3912	8.0135																																														21.0756	17.3779	-1.2213	12.7925	-8.1908	10.0869	-4.6076	-12.0014	-2.9086	-27.0327	0	0	-40.7382	-5.7644	-4.2935	29.4741	-0.0118	-1.3807	1.9589	0.0637	-0.2495	-11.1509	0	0
0.1121	88.3424	136.6465	5.3142	1.4557	0.8044	3.9323	-6.974	-0.1712	2.4092	-7.3341	2.8663	2.2399	-7.2988	3.06	-0.0211	4.9988	0.2177	0	0	0	-4.2865	13.1099	-4.8895	-13.1998	2.6073	-9.3823	-40.6697	19.7457	-19.6203	0	0	-51.2129	15.9644	1.1902	6.041																																														15.4274	1.3162	2.4813	56.9627	21.084	-3.9015	0	0	9.6005	25.5032	-15.3581	8.6234																																														11.3386	18.047	3.0619	34.6882	-9.8025	9.7502	3.4703	-6.9188	-1.2562	-27.5245	0	0	-41.0142	-6.2314	-4.262	36.5343	1.0216	0.5701	0.4944	-0.023	-1.9885	-7.4411	0	0
-0.5702	88.7663	142.0232	4.6862	1.5516	0.5021	3.8609	-6.4692	-0.3253	2.3512	-6.9293	2.8187	2.1918	-6.9055	2.9908	0.0184	4.5928	0.8641	0	0	0	-3.676	12.9163	-4.6651	-13.0606	2.5418	-9.1488	-44.8882	20.5221	-16.8781	0	0	-44.1608	16.6288	1.3561	4.0374																																														16.1608	1.4016	2.6226	54.3528	22.2591	-0.2881	0	0	11.1466	24.1684	-15.3448	8.4951																																														1.751	15.7804	5.5812	52.7029	-9.3348	9.3457	12.9566	-2.5257	-4.5886	-15.328	0	0	-39.4338	-7.0811	-4.011	40.9051	1.9279	1.6178	-4.2238	0.0224	-3.3895	-6.1555	0	0
-1.0442	89.6237	146.7504	4.0772	1.7281	0.3395	4.2968	-4.8521	-0.6827	2.3985	-6.3204	2.6193	2.2771	-6.2979	2.7891	-0.1537	3.98	1.3414	0	0	0	-3.9145	11.3229	-3.8201	-13.1138	2.5606	-9.2172	-47.1878	22.4714	-16.032	0	0	-34.6421	12.9092	1.4117	2.031																																														16.7526	1.4434	2.6073	52.4545	21.4663	3.5048	0	0	13.2313	20.8578	-13.5458	6.2856																																														-7.5632	12.4396	6.044	66.3293	-5.3831	7.8506	12.1938	-0.6294	-5.7992	-9.2621	0	0	-36.5058	-7.498	-3.336	41.9908	2.5817	1.8259	-8.421	0.1328	-4.0026	-6.2904	0	0
-1.0944	90.9421	151.2922	3.4847	1.9185	0.2983	4.7508	-3.3436	-0.8732	2.5628	-5.2582	2.3351	2.4794	-5.2295	2.5094	-0.2973	3.3092	1.272	0	0	0	-4.3168	9.0877	-2.9621	-13.4711	2.6249	-9.3191	-48.9301	24.6136	-15.5599	0	0	-24.924	4.6538	1.6727	2.6907																																														16.7523	1.4799	2.7495	51.2416	20.3334	7.3504	0	0	15.4768	16.8503	-10.4834	2.3929																																														-15.8656	10.5723	5.9218	73.5095	-3.5219	5.5745	6.4513	-0.2719	-3.8743	-9.7412	0	0	-32.2099	-7.3951	-2.2455	40.082	2.5587	0.9904	-10.9688	0.1795	-3.4933	-5.9713	0	0
-0.7812	92.5394	155.8979	2.9105	2.0541	0.3072	5.0055	-2.3739	-0.7787	2.6654	-4.0063	1.948	2.6188	-3.9699	2.1057	-0.2741	2.7153	0.7747	0	0	0	-4.2435	6.9201	-2.2251	-13.7556	2.6618	-9.3256	-51.6098	25.9829	-13.5916	0	0	-18.09	-3.4307	3.2647	4.9776																																														16.4516	1.5371	3.0786	49.9642	20.5265	11.16	0	0	17.7937	13.227	-7.054	-0.1484																																														-22.7656	10.097	5.9193	74.0826	-4.6439	3.2706	3.2611	-0.1229	-2.9486	-9.2454	0	0	-26.6211	-7.0458	-0.8355	35.6356	2.0521	-0.8148	-12.2116	0.1283	-2.0658	-5.5971	0	0
-0.3277	94.0972	160.3971	2.3639	2.0649	0.304	5.4726	-1.7287	-0.542	2.6175	-2.9855	1.5572	2.591	-2.9433	1.6843	-0.2962	2.3014	0.1709	0	0	0	-3.7358	5.3206	-1.8496	-13.9399	2.6408	-9.1111	-55.1658	26.089	-9.8098	0	0	-13.4	-9.6563	5.4452	7.13																																														16.0656	1.6111	3.52	48.2966	21.6992	14.6781	0	0	20.5179	10.3887	-3.9025	0.9943																																														-27.8838	9.7614	5.5508	68.9432	-5.4566	1.1369	0.5835	-0.0114	-1.9761	-8.7758	0	0	-20.026	-7	0.383	28.9797	2.0411	-2.6763	-12.0712	0.0336	-0.5867	-5.2544	0	0
0.0563	95.2973	164.8556	1.8429	2.0285	0.2916	6.1075	-1.1628	-0.3504	2.4582	-2.3328	1.1488	2.433	-2.2887	1.2561	-0.4702	2.0927	-0.2566	0	0	0	-3.1392	4.349	-1.8771	-14.1853	2.5768	-8.6576	-58.7487	25.1579	-4.7519	0	0	-11.0584	-13.8804	6.7417	8.1112																																														15.6428	1.6592	3.8789	46.1461	23.1172	17.7682	0	0	23.6188	8.6817	-1.7674	3.368																																														-30.9254	9.0749	4.8147	58.6699	-4.4173	-0.6849	-1.4839	0.0882	-1.8974	-7.9327	0	0	-12.8438	-7.4532	1.1446	20.9966	2.9796	-3.7788	-11.2312	-0.0263	0.3822	-4.9268	0	0
0.2024	95.791	169.7281	1.2933	2.6399	0.4082	5.7056	-0.2072	-0.475	2.1984	-1.7455	0.5627	2.1815	-1.7039	0.6537	-0.4477	1.8328	-0.3462	0	0	0	-2.8342	3.1542	-1.8753	-14.0407	2.3599	-7.7098	-61.8689	23.3577	0.3437	0	0	-11.0249	-16.8489	5.5081	7.9767																																														15.3001	1.7078	4.2022	43.4307	23.7449	20.3407	0	0	26.6896	10.958	-4.5886	3.2409																																														-32.3279	8.9713	3.799	43.7195	-1.9704	-2.1517	-1.3759	0.1813	-3.5325	-6.2315	0	0	-6.7499	-8.3477	1.5986	14.5344	4.5982	-4.4287	-12.2607	-0.0816	0.7841	-4.6421	0	0
